<svg width="400" height="400" viewBox="0 0 400 400" xmlns="http://www.w3.org/2000/svg" role="img" aria-label="InfraGuard logo">
  <g fill="none" stroke="#4A86F7" stroke-linecap="round" stroke-linejoin="round">
    <path
      d="M 111 286 H 285 C 323 286 354 256 354 219 C 354 183 326 154 290 154 H 278 C 272 113 238 82 198 82 C 160 82 127 110 120 148 H 108 C 73 148 46 177 46 214 C 46 253 75 286 111 286 Z"
      stroke-width="20"
    />
    <path
      d="M 200 150 C 218 162 234 167 252 170 V 201 C 252 230 229 248 200 262 C 171 248 148 230 148 201 V 170 C 166 167 182 162 200 150 Z"
      stroke-width="14"
    />
    <circle cx="176" cy="194" r="5" stroke-width="8" />
    <path d="M 196 193 H 226" stroke-width="12" />
    <path d="M 176 219 H 226" stroke-width="12" />
  </g>
</svg>
